<svg xmlns="http://www.w3.org/2000/svg" xmlns:xlink="http://www.w3.org/1999/xlink" width="1350" height="630" viewBox="0 0 1350 630" fill="none"><rect x="0" y="0" width="0" height="0" fill="rgba(249, 249, 249, 1)" /><g opacity="1"  transform="translate(0 0)  rotate(0)"><rect fill="#236EC4" opacity="1" transform="translate(0 0)  rotate(0)" x="0" y="0" width="1350" height="630" /><mask id="bg-mask-0" fill="white"><use xlink:href="#path_0"></use></mask><g mask="url(#bg-mask-0)" ><g opacity="1"  transform="translate(36 9)  rotate(0)"><path  id="直线 1" style="fill:#FFFFFF; opacity:1;" d="M399.035,590.349v-566.9901h76.412v566.9901z"></path><path  id="直线 1" style="fill:#FFFFFF; opacity:1;" d="M577.328,590.349v-566.99h76.411v566.99z"></path><path  id="直线 1" style="fill:#FFFFFF; opacity:1;" d="M1190.74,590.349v-566.99h76.41v566.99z"></path><path  id="直线 1" style="fill:#FFFFFF; opacity:1;" d="M732.273,590.349v-566.99h76.411v566.99z"></path><path  id="直线 1" style="fill:#FFFFFF; opacity:1;" d="M1033.67,590.359v-222.984h76.41v222.984z"></path><path  id="直线 1" style="fill:#FFFFFF; opacity:1;" d="M437.241,397.087h-282.296v-76.411h282.296z"></path><path  id="直线 1" style="fill:#FFFFFF; opacity:1;" d="M1110.52,592.452l-375.693,4.247l-0.863,-76.406l375.686,-4.247z"></path><path  id="直线 1" style="fill:#FFFFFF; opacity:1;" d="M1088.92,89.1711h-354.524v-76.4111h354.524z"></path><path  id="直线 1" style="fill:#FFFFFF; opacity:1;" d="M1110.08,405.581h-201.637v-76.411h201.637z"></path><path  id="直线 1" style="fill:#FFFFFF; opacity:1;" d="M-12.9897,542.619l411.6087,-519l59.869,47.4805l-411.6091,519.0005z"></path></g></g></g><defs><rect id="path_0" x="0" y="0" width="1350" height="630" /></defs></svg>